<svg width="400" height="400" viewBox="0 0 400 400" fill="none" xmlns="http://www.w3.org/2000/svg">
  <rect width="400" height="400" fill="#F3F4F6"/>
  <path d="M200 120C177.909 120 160 137.909 160 160C160 182.091 177.909 200 200 200C222.091 200 240 182.091 240 160C240 137.909 222.091 120 200 120ZM200 180C188.954 180 180 171.046 180 160C180 148.954 188.954 140 200 140C211.046 140 220 148.954 220 160C220 171.046 211.046 180 200 180Z" fill="#9CA3AF"/>
  <path d="M280 240H120C115.757 240 112.086 242.408 110.371 246.219C108.656 250.03 109.216 254.509 111.858 257.721L171.858 327.721C173.701 329.927 176.476 331.2 179.412 331.2H220.588C223.524 331.2 226.299 329.927 228.142 327.721L288.142 257.721C290.784 254.509 291.344 250.03 289.629 246.219C287.914 242.408 284.243 240 280 240ZM210 310H190V290H210V310ZM210 270H190V210H210V270Z" fill="#9CA3AF"/>
  <path d="M200 80C133.726 80 80 133.726 80 200C80 266.274 133.726 320 200 320C266.274 320 320 266.274 320 200C320 133.726 266.274 80 200 80ZM200 300C144.772 300 100 255.228 100 200C100 144.772 144.772 100 200 100C255.228 100 300 144.772 300 200C300 255.228 255.228 300 200 300Z" fill="#9CA3AF"/>
  <text x="200" y="260" font-family="Arial, sans-serif" font-size="24" text-anchor="middle" fill="#6B7280">Изображение не найдено</text>
</svg>
